<svg xmlns="http://www.w3.org/2000/svg" viewBox="0 0 250 250">
  <rect width="100%" height="100%" fill="#222"/>
  <!-- Laptop and Gear Icon -->
  <g stroke="#FFF700" stroke-width="4" fill="none">
    <rect x="70" y="60" width="110" height="60" rx="10"/>
    <circle cx="125" cy="90" r="20"/>
    <path d="M115 90a10 10 0 0 1 20 0"/>
    <!-- Gear teeth (simplified) -->
    <path d="M125 70 v-10"/>
    <path d="M125 110 v10"/>
    <path d="M145 90 h10"/>
    <path d="M105 90 h-10"/>
    <!-- Circuit lines -->
    <line x1="100" y1="60" x2="100" y2="40"/>
    <rect x="95" y="30" width="10" height="10" rx="2" fill="#222"/>
    <line x1="125" y1="60" x2="125" y2="30"/>
    <rect x="120" y="20" width="10" height="10" rx="2" fill="#222"/>
    <line x1="150" y1="60" x2="150" y2="40"/>
    <rect x="145" y="30" width="10" height="10" rx="2" fill="#222"/>
  </g>
  <!-- Text -->
  <text x="50%" y="160" text-anchor="middle" font-family="'Baloo', Arial, sans-serif" font-size="32" fill="#FFF700" font-weight="bold">Healthcare</text>
  <text x="50%" y="195" text-anchor="middle" font-family="'Baloo', Arial, sans-serif" font-size="32" fill="#FFF700" font-weight="bold">IT AI</text>
</svg>
