<svg xmlns="http://www.w3.org/2000/svg" viewBox="0 0 500 500">
  <rect width="100%" height="100%" fill="#222"/>
  <!-- Laptop and Gear Icon (doubled size) -->
  <g stroke="#FFF700" stroke-width="8" fill="none">
    <rect x="140" y="120" width="220" height="120" rx="20"/>
    <circle cx="250" cy="180" r="40"/>
    <path d="M230 180a20 20 0 0 1 40 0"/>
    <!-- Gear teeth (simplified) -->
    <path d="M250 140 v-20"/>
    <path d="M250 220 v20"/>
    <path d="M290 180 h20"/>
    <path d="M210 180 h-20"/>
    <!-- Circuit lines -->
    <line x1="200" y1="120" x2="200" y2="80"/>
    <rect x="190" y="60" width="20" height="20" rx="4" fill="#222"/>
    <line x1="250" y1="120" x2="250" y2="60"/>
    <rect x="240" y="40" width="20" height="20" rx="4" fill="#222"/>
    <line x1="300" y1="120" x2="300" y2="80"/>
    <rect x="290" y="60" width="20" height="20" rx="4" fill="#222"/>
  </g>
  <!-- Text (doubled size) -->
  <text x="50%" y="320" text-anchor="middle" font-family="'Baloo', Arial, sans-serif" font-size="64" fill="#FFF700" font-weight="bold">Healthcare</text>
  <text x="50%" y="390" text-anchor="middle" font-family="'Baloo', Arial, sans-serif" font-size="64" fill="#FFF700" font-weight="bold">IT AI</text>
</svg>
